HIERARCHY
ROOT Hips
{
	OFFSET -0.001795 -0.223333 0.028219
	CHANNELS 6 Xposition Yposition Zposition Zrotation Yrotation Xrotation 
	JOINT LeftUpLeg
	{
		OFFSET 0.069520 -0.091406 -0.006815
		CHANNELS 3 Zrotation Yrotation Xrotation
		JOINT LeftLeg
		{
			OFFSET 0.034277 -0.375199 -0.004496
			CHANNELS 3 Zrotation Yrotation Xrotation
			JOINT LeftFoot
			{
				OFFSET -0.013596 -0.397961 -0.043693
				CHANNELS 3 Zrotation Yrotation Xrotation
				JOINT LeftToe
				{
					OFFSET 0.026358 -0.055791 0.119288
					CHANNELS 3 Zrotation Yrotation Xrotation
					End Site
					{
						OFFSET 0.000000 0.000000 0.000000
					}
				}
			}
		}
	}
	JOINT RightUpLeg
	{
		OFFSET -0.067670 -0.090522 -0.004320
		CHANNELS 3 Zrotation Yrotation Xrotation
		JOINT RightLeg
		{
			OFFSET -0.038290 -0.382569 -0.008850
			CHANNELS 3 Zrotation Yrotation Xrotation
			JOINT RightFoot
			{
				OFFSET 0.015774 -0.398415 -0.042312
				CHANNELS 3 Zrotation Yrotation Xrotation
				JOINT RightToe
				{
					OFFSET -0.025372 -0.048144 0.123348
					CHANNELS 3 Zrotation Yrotation Xrotation
					End Site
					{
						OFFSET 0.000000 0.000000 0.000000
					}
				}
			}
		}
	}
	JOINT Spine
	{
		OFFSET -0.002533 0.108963 -0.026696
		CHANNELS 3 Zrotation Yrotation Xrotation
		JOINT Spine1
		{
			OFFSET 0.005487 0.135180 0.001092
			CHANNELS 3 Zrotation Yrotation Xrotation
			JOINT Spine2
			{
				OFFSET 0.001457 0.052922 0.025425
				CHANNELS 3 Zrotation Yrotation Xrotation
				JOINT Neck
				{
					OFFSET -0.002778 0.213870 -0.042857
					CHANNELS 3 Zrotation Yrotation Xrotation
					JOINT Head
					{
						OFFSET 0.005152 0.064970 0.051349
						CHANNELS 3 Zrotation Yrotation Xrotation
						End Site
						{
							OFFSET 0.000000 0.000000 0.000000
						}
					}
				}
				JOINT LeftShoulder
				{
					OFFSET 0.078845 0.121749 -0.034090
					CHANNELS 3 Zrotation Yrotation Xrotation
					JOINT LeftArm
					{
						OFFSET 0.090977 0.030469 -0.008868
						CHANNELS 3 Zrotation Yrotation Xrotation
						JOINT LeftForeArm
						{
							OFFSET 0.259612 -0.012772 -0.027456
							CHANNELS 3 Zrotation Yrotation Xrotation
							JOINT LeftHand
							{
								OFFSET 0.249234 0.008986 -0.001171
								CHANNELS 3 Zrotation Yrotation Xrotation
								End Site
								{
									OFFSET 0.000000 0.000000 0.000000
								}
							}
						}
					}
				}
				JOINT RightShoulder
				{
					OFFSET -0.081759 0.118833 -0.038615
					CHANNELS 3 Zrotation Yrotation Xrotation
					JOINT RightArm
					{
						OFFSET -0.096012 0.032551 -0.009143
						CHANNELS 3 Zrotation Yrotation Xrotation
						JOINT RightForeArm
						{
							OFFSET -0.253742 -0.013329 -0.021401
							CHANNELS 3 Zrotation Yrotation Xrotation
							JOINT RightHand
							{
								OFFSET -0.255298 0.007772 -0.005559
								CHANNELS 3 Zrotation Yrotation Xrotation
								End Site
								{
									OFFSET 0.000000 0.000000 0.000000
								}
							}
						}
					}
				}
			}
		}
	}
}
MOTION
Frames: 15
Frame Time: 0.05000000
-0.336514 0.961083 -1.443787 -1.235296 22.951746 0.655362 7.452407 -0.546544 -1.729070 -4.373133 0.191570 3.798262 2.531433 7.771030 5.219933 0.000000 0.000000 0.000000 -3.905773 0.090799 -3.157829 3.530080 -0.610817 2.311104 -5.457865 -12.715479 11.503183 0.000000 0.000000 0.000000 -3.943910 -0.021292 2.004087 6.094077 -0.590265 -21.970113 -2.130089 -9.204978 26.834916 -4.165737 4.525084 -15.672933 0.000000 0.000000 0.000000 -8.129622 -9.403200 2.854602 -48.094869 -52.016233 13.787384 136.645426 -65.525152 -110.568824 0.000000 0.000000 0.000000 9.725020 5.341234 2.776399 66.221702 -8.391400 -13.024787 -0.277177 46.931886 3.496800 0.000000 0.000000 0.000000 
-0.336358 0.960622 -1.443579 -1.368735 22.675511 0.384315 7.681427 -0.550598 -1.246914 -4.663473 0.226078 3.210241 2.487476 7.940961 5.738288 0.000000 0.000000 0.000000 -4.026297 0.094140 -3.334208 3.534652 -0.609311 2.393210 -5.222413 -12.245938 11.751018 0.000000 0.000000 0.000000 -4.106552 -0.019988 1.504792 6.284087 -0.661175 -21.760340 -1.898886 -8.472629 26.790985 -4.235584 4.629375 -14.742664 0.000000 0.000000 0.000000 -7.826674 -9.354993 2.782970 -46.574383 -51.528003 12.845052 135.041768 -67.387753 -110.909793 0.000000 0.000000 0.000000 9.458666 5.378560 2.834278 66.875744 -8.136789 -12.911646 -0.249561 47.747539 3.687147 0.000000 0.000000 0.000000 
-0.336149 0.959909 -1.443674 -1.509822 22.791766 -0.016779 7.939077 -0.565824 -0.957987 -5.205157 0.264324 2.956371 2.397130 7.871600 5.908656 0.000000 0.000000 0.000000 -4.082389 0.078789 -3.249235 3.273705 -0.565227 2.602039 -5.053850 -11.888785 11.820785 0.000000 0.000000 0.000000 -4.375198 -0.026049 1.570184 6.376363 -0.688365 -21.781164 -1.710396 -8.331770 26.637791 -4.167704 4.583288 -13.997314 0.000000 0.000000 0.000000 -7.243962 -9.341138 2.771472 -45.311758 -51.339331 12.217850 131.040567 -69.255602 -108.235622 0.000000 0.000000 0.000000 9.386162 5.549538 2.923459 67.015184 -8.271080 -12.965299 0.758935 48.269234 4.185410 0.000000 0.000000 0.000000 
-0.336014 0.959375 -1.443892 -1.556822 22.684708 -0.164944 7.947550 -0.561317 -0.877712 -5.216770 0.267637 2.926215 2.335773 7.840032 6.057334 0.000000 0.000000 0.000000 -4.216903 0.080870 -3.451798 3.306783 -0.573916 2.822291 -4.847747 -11.482572 11.902178 0.000000 0.000000 0.000000 -4.545466 -0.028392 1.332554 6.367986 -0.695268 -21.715404 -1.487100 -8.268805 26.404429 -4.217470 4.611587 -13.986246 0.000000 0.000000 0.000000 -6.631897 -9.352398 2.800850 -44.091861 -51.083279 11.627402 126.730451 -70.111014 -104.193633 0.000000 0.000000 0.000000 9.146063 5.577977 2.905156 67.523625 -8.306008 -13.039223 0.488039 48.365036 4.082060 0.000000 0.000000 0.000000 
-0.335961 0.959115 -1.444158 -1.663949 22.824617 -0.274332 7.906212 -0.559545 -0.882993 -5.325201 0.273098 2.698159 2.409226 8.149482 6.440069 0.000000 0.000000 0.000000 -4.290179 0.077281 -3.541845 3.223918 -0.563321 3.003677 -4.900004 -11.549772 12.131005 0.000000 0.000000 0.000000 -4.821425 -0.032620 1.205965 6.601070 -0.760850 -21.697756 -1.450410 -8.431499 26.200262 -4.322571 4.656629 -13.518961 0.000000 0.000000 0.000000 -5.934253 -9.492031 2.883485 -42.883728 -51.297521 11.250236 119.922875 -70.691066 -97.205683 0.000000 0.000000 0.000000 9.058787 5.358057 2.790196 67.468632 -8.273615 -13.004730 0.610206 47.882443 4.069855 0.000000 0.000000 0.000000 
-0.336061 0.958845 -1.444493 -1.686993 22.666967 -0.149411 7.605986 -0.537166 -1.306310 -5.066074 0.256500 3.024528 2.613370 8.299879 6.048398 0.000000 0.000000 0.000000 -4.562317 0.083800 -3.972343 3.233684 -0.565506 3.163087 -4.754025 -11.249953 12.457118 0.000000 0.000000 0.000000 -4.916780 -0.033887 0.733958 6.474190 -0.728268 -21.711955 -1.418356 -8.638877 26.127706 -4.646979 4.827235 -12.794416 0.000000 0.000000 0.000000 -5.109922 -9.918594 3.097223 -41.326436 -51.475884 10.740481 113.878645 -69.688578 -89.545040 0.000000 0.000000 0.000000 8.313836 5.511637 2.758055 68.329987 -8.573715 -13.307811 0.691829 47.798284 4.063126 0.000000 0.000000 0.000000 
-0.336196 0.958777 -1.444846 -1.613205 22.320139 0.019328 7.256937 -0.510414 -1.557869 -4.738561 0.233745 3.476465 2.983240 8.737728 5.694640 0.000000 0.000000 0.000000 -4.639452 0.108708 -4.455939 3.165793 -0.558176 3.710803 -4.803097 -11.353641 12.869571 0.000000 0.000000 0.000000 -5.043700 -0.035382 0.366408 6.720483 -0.788437 -22.047835 -1.563330 -8.683083 26.107860 -5.065128 5.100230 -12.668380 0.000000 0.000000 0.000000 -4.749114 -10.017016 3.163180 -39.413508 -51.867736 10.170595 107.544385 -68.289198 -81.454783 0.000000 0.000000 0.000000 8.150360 5.696032 2.799148 68.332310 -8.816212 -13.470933 1.133751 47.501335 4.170888 0.000000 0.000000 0.000000 
-0.336247 0.958953 -1.445186 -1.343329 22.293282 0.193978 6.597630 -0.473751 -2.004910 -4.562017 0.207817 4.310308 3.189392 8.655409 4.776440 0.000000 0.000000 0.000000 -4.914184 0.101568 -4.778614 3.122413 -0.556265 4.045390 -5.109695 -11.916968 13.382231 0.000000 0.000000 0.000000 -5.239206 -0.041123 0.044742 6.675465 -0.779288 -21.975579 -1.574255 -8.857750 25.800062 -5.459537 5.356233 -12.701051 0.000000 0.000000 0.000000 -4.025283 -10.081591 3.211096 -38.151643 -52.095574 9.798048 103.061948 -66.004564 -74.574766 0.000000 0.000000 0.000000 7.925979 5.678122 2.746872 68.217279 -9.516121 -13.835709 1.878566 46.901940 4.345392 0.000000 0.000000 0.000000 
-0.336268 0.959090 -1.445469 -0.968164 22.372487 0.458745 5.945827 -0.445169 -2.351095 -4.485000 0.190503 4.780272 3.503133 9.025196 4.431903 0.000000 0.000000 0.000000 -5.227803 0.084133 -5.004512 2.988128 -0.543656 4.654227 -5.174791 -12.025871 13.440494 0.000000 0.000000 0.000000 -5.307652 -0.045147 -0.299538 6.551793 -0.731576 -22.179576 -1.646912 -8.775857 25.768611 -5.472265 5.374470 -12.551704 0.000000 0.000000 0.000000 -3.144633 -10.153147 3.241186 -37.319682 -52.244791 9.483906 99.705435 -63.390865 -68.736246 0.000000 0.000000 0.000000 7.473489 5.670391 2.720683 68.453583 -10.511620 -14.385758 2.674297 46.752979 4.650591 0.000000 0.000000 0.000000 
-0.336308 0.959522 -1.445757 -0.672454 22.792937 0.424615 5.491810 -0.431161 -2.638567 -4.549033 0.182884 5.112465 3.709504 9.244877 4.147612 0.000000 0.000000 0.000000 -5.528205 0.035874 -4.716697 3.135889 -0.582487 4.719417 -5.728867 -13.001082 14.099346 0.000000 0.000000 0.000000 -5.198570 -0.053442 -0.744097 6.162374 -0.633713 -21.714404 -1.588326 -9.011152 25.625100 -5.965632 5.727210 -12.735148 0.000000 0.000000 0.000000 -2.570784 -9.720779 3.096164 -37.204548 -52.359199 9.469316 96.584771 -61.442485 -63.900815 0.000000 0.000000 0.000000 7.107855 5.462932 2.600267 68.622143 -11.101784 -14.708842 2.225486 46.188781 4.372680 0.000000 0.000000 0.000000 
-0.336390 0.959710 -1.446372 -0.291835 23.346441 0.553470 4.944327 -0.408802 -2.683704 -4.496347 0.170604 5.071093 3.592858 9.174718 4.403256 0.000000 0.000000 0.000000 -5.640133 0.015388 -4.713524 3.188755 -0.619260 5.291414 -6.399806 -14.224231 13.998942 0.000000 0.000000 0.000000 -5.146950 -0.057950 -0.977867 5.960379 -0.562367 -21.717838 -1.766319 -8.917997 25.344529 -5.654815 5.538282 -12.445298 0.000000 0.000000 0.000000 -2.597853 -10.068912 3.186919 -36.531755 -51.425674 8.860987 95.348107 -60.077869 -61.711702 0.000000 0.000000 0.000000 6.805922 5.378947 2.575699 68.820301 -12.102866 -15.188935 1.192344 46.003283 3.936788 0.000000 0.000000 0.000000 
-0.336254 0.958900 -1.447447 0.042024 24.394614 0.307736 4.333330 -0.413477 -3.373844 -4.461433 0.112877 6.481171 3.656629 8.796215 3.393604 0.000000 0.000000 0.000000 -5.882717 -0.034385 -4.725761 3.218724 -0.681887 6.334846 -7.119423 -15.486842 13.936745 0.000000 0.000000 0.000000 -4.643209 -0.052368 -0.969528 5.256644 -0.353565 -21.268313 -1.895010 -9.249923 25.008491 -5.433006 5.382523 -11.840708 0.000000 0.000000 0.000000 -3.146530 -10.134621 3.168605 -36.598187 -50.901865 8.719560 93.952407 -59.892468 -60.493395 0.000000 0.000000 0.000000 6.277046 5.248932 2.499602 69.234223 -12.649126 -15.456470 0.756571 45.007150 3.646709 0.000000 0.000000 0.000000 
-0.336004 0.957476 -1.449495 0.274223 25.213375 0.154354 3.836913 -0.453520 -4.453115 -4.672493 0.046025 8.505001 3.799096 8.462839 2.252652 0.000000 0.000000 0.000000 -6.243844 -0.079933 -5.114809 3.285061 -0.775802 7.727728 -7.345288 -15.851285 13.772649 0.000000 0.000000 0.000000 -4.514508 -0.059637 -1.339512 4.728117 -0.210546 -20.526319 -1.634700 -9.345568 24.575763 -5.616336 5.541597 -11.785762 0.000000 0.000000 0.000000 -3.490101 -10.105488 3.115545 -38.319518 -49.914804 9.031223 91.997716 -60.663149 -59.702112 0.000000 0.000000 0.000000 5.790685 5.225747 2.469924 69.275451 -13.156455 -15.615564 1.610233 43.371504 3.760730 0.000000 0.000000 0.000000 
-0.335862 0.955685 -1.452092 0.410167 25.779760 -0.628375 3.701439 -0.468566 -4.820184 -5.139165 0.036666 9.688949 3.560636 7.899551 1.982375 0.000000 0.000000 0.000000 -6.321184 -0.111728 -5.303833 2.981816 -0.828027 9.840784 -7.795276 -16.731833 13.386306 0.000000 0.000000 0.000000 -4.408914 -0.067305 -1.224909 4.479651 -0.123188 -20.680220 -1.562766 -9.479835 25.060217 -5.279177 5.342226 -12.004589 0.000000 0.000000 0.000000 -4.065206 -9.541222 2.871931 -40.886088 -47.704513 9.095728 90.000687 -63.440981 -60.693025 0.000000 0.000000 0.000000 5.344406 4.448612 2.131693 69.176840 -13.600937 -15.815080 2.319410 41.826703 3.874154 0.000000 0.000000 0.000000 
-0.335631 0.954237 -1.455094 0.238877 25.977612 -0.814161 3.926283 -0.529422 -5.702984 -5.962994 0.090485 10.580791 4.016322 8.665859 1.882415 0.000000 0.000000 0.000000 -6.555104 -0.121459 -6.420323 3.347388 -1.081193 12.029328 -8.320816 -17.850657 12.717490 0.000000 0.000000 0.000000 -4.052138 -0.073763 -2.344074 4.246673 -0.087965 -19.583974 -1.430788 -9.474244 24.385973 -4.626593 4.854185 -12.166661 0.000000 0.000000 0.000000 -5.342769 -8.575676 2.442551 -45.020284 -43.948836 9.061302 89.696250 -69.866880 -66.588214 0.000000 0.000000 0.000000 4.553562 4.287434 1.980969 68.841914 -14.011154 -15.821292 3.404746 39.576821 3.873702 0.000000 0.000000 0.000000 
